<svg width="960" height="600" viewBox="0 0 960 600" fill="none" xmlns="http://www.w3.org/2000/svg">
  <rect width="960" height="600" rx="36" fill="#191E34"/>
  <rect x="30" y="30" width="900" height="540" rx="28" fill="url(#bg)"/>
  <rect x="88" y="88" width="784" height="424" rx="28" fill="#FFFFFF" fill-opacity="0.07" stroke="#FFFFFF" stroke-opacity="0.12"/>
  <rect x="130" y="124" width="356" height="208" rx="26" fill="url(#card)"/>
  <circle cx="182" cy="182" r="30" fill="#FFD166"/>
  <circle cx="220" cy="182" r="30" fill="#FF8A5B" fill-opacity="0.9"/>
  <rect x="130" y="356" width="356" height="112" rx="22" fill="#FFFFFF" fill-opacity="0.08"/>
  <rect x="160" y="388" width="144" height="18" rx="9" fill="#FFFFFF" fill-opacity="0.72"/>
  <rect x="160" y="418" width="256" height="14" rx="7" fill="#FFFFFF" fill-opacity="0.24"/>
  <rect x="536" y="126" width="290" height="44" rx="14" fill="#FFFFFF" fill-opacity="0.76"/>
  <rect x="536" y="192" width="140" height="108" rx="18" fill="#7C5CFF"/>
  <rect x="692" y="192" width="134" height="108" rx="18" fill="#18C9A5"/>
  <rect x="536" y="324" width="290" height="144" rx="18" fill="#FFFFFF" fill-opacity="0.08"/>
  <path d="M574 422H788" stroke="#FFFFFF" stroke-opacity="0.2" stroke-width="12" stroke-linecap="round"/>
  <path d="M574 390L622 344L670 378L720 330L784 408" stroke="#FFD166" stroke-width="12" stroke-linecap="round" stroke-linejoin="round"/>
  <text x="130" y="520" fill="#FFFFFF" font-family="Arial, sans-serif" font-size="52" font-weight="700">Card Terminal</text>
  <defs>
    <linearGradient id="bg" x1="90" y1="74" x2="862" y2="542" gradientUnits="userSpaceOnUse">
      <stop stop-color="#2D3568"/>
      <stop offset="1" stop-color="#11162B"/>
    </linearGradient>
    <linearGradient id="card" x1="130" y1="124" x2="486" y2="332" gradientUnits="userSpaceOnUse">
      <stop stop-color="#7C5CFF"/>
      <stop offset="0.55" stop-color="#FF6F91"/>
      <stop offset="1" stop-color="#FFB347"/>
    </linearGradient>
  </defs>
</svg>
