<svg width="960" height="600" viewBox="0 0 960 600" fill="none" xmlns="http://www.w3.org/2000/svg">
  <rect width="960" height="600" rx="36" fill="#E7D5BD"/>
  <rect x="28" y="28" width="904" height="544" rx="28" fill="url(#bg)"/>
  <rect x="86" y="74" width="788" height="452" rx="34" fill="#FFF8F0" fill-opacity="0.88"/>
  <circle cx="676" cy="226" r="106" fill="#D6B18A"/>
  <circle cx="676" cy="226" r="68" fill="#4D3428"/>
  <rect x="148" y="144" width="248" height="22" rx="11" fill="#8A5B3F" fill-opacity="0.3"/>
  <rect x="148" y="188" width="336" height="64" rx="18" fill="#4D3428"/>
  <rect x="148" y="274" width="246" height="18" rx="9" fill="#8A5B3F" fill-opacity="0.42"/>
  <rect x="148" y="308" width="286" height="18" rx="9" fill="#8A5B3F" fill-opacity="0.26"/>
  <rect x="148" y="378" width="174" height="54" rx="27" fill="#B7683E"/>
  <rect x="340" y="378" width="174" height="54" rx="27" fill="#EFE2D3"/>
  <circle cx="646" cy="412" r="20" fill="#8A5B3F"/>
  <circle cx="694" cy="394" r="20" fill="#8A5B3F"/>
  <circle cx="736" cy="422" r="20" fill="#8A5B3F"/>
  <text x="148" y="482" fill="#4D3428" font-family="Arial, sans-serif" font-size="52" font-weight="700">Morning Set</text>
  <defs>
    <linearGradient id="bg" x1="82" y1="70" x2="884" y2="536" gradientUnits="userSpaceOnUse">
      <stop stop-color="#F1E0C7"/>
      <stop offset="1" stop-color="#D5BA9B"/>
    </linearGradient>
  </defs>
</svg>
