<svg width="960" height="600" viewBox="0 0 960 600" fill="none" xmlns="http://www.w3.org/2000/svg">
  <rect width="960" height="600" rx="36" fill="#18322C"/>
  <rect x="28" y="28" width="904" height="544" rx="28" fill="url(#bg)"/>
  <rect x="78" y="78" width="804" height="444" rx="30" fill="#FFF8EF" fill-opacity="0.08" stroke="#FFF8EF" stroke-opacity="0.13"/>
  <rect x="118" y="118" width="724" height="72" rx="20" fill="#FFF8EF" fill-opacity="0.08"/>
  <circle cx="160" cy="154" r="12" fill="#D96B42"/>
  <circle cx="196" cy="154" r="12" fill="#E8AD4B"/>
  <circle cx="232" cy="154" r="12" fill="#57B98D"/>
  <rect x="142" y="224" width="302" height="244" rx="26" fill="#FFF8EF" fill-opacity="0.1"/>
  <rect x="176" y="262" width="148" height="18" rx="9" fill="#FFF8EF" fill-opacity="0.42"/>
  <rect x="176" y="306" width="226" height="44" rx="15" fill="#FFF8EF" fill-opacity="0.16"/>
  <circle cx="202" cy="328" r="9" fill="#D96B42"/>
  <rect x="176" y="370" width="226" height="44" rx="15" fill="#FFF8EF" fill-opacity="0.16"/>
  <circle cx="202" cy="392" r="9" fill="#57B98D"/>
  <rect x="176" y="432" width="132" height="36" rx="18" fill="#FFF8EF" fill-opacity="0.88"/>
  <rect x="502" y="224" width="316" height="244" rx="26" fill="#FFF8EF" fill-opacity="0.12"/>
  <circle cx="660" cy="310" r="54" fill="#FFF8EF" fill-opacity="0.9"/>
  <path d="M660 260C636 260 618 279 618 302C618 325 636 344 660 344C684 344 702 325 702 302C702 279 684 260 660 260Z" fill="#D96B42"/>
  <path d="M594 426C594 388 624 358 662 358H658C696 358 726 388 726 426V446H594V426Z" fill="#18322C"/>
  <path d="M536 250H784" stroke="#FFF8EF" stroke-opacity="0.24" stroke-width="14" stroke-linecap="round"/>
  <path d="M536 452H784" stroke="#FFF8EF" stroke-opacity="0.18" stroke-width="14" stroke-linecap="round"/>
  <text x="118" y="535" fill="#FFF8EF" font-family="Arial, sans-serif" font-size="52" font-weight="700">Minimalist Login</text>
  <defs>
    <linearGradient id="bg" x1="76" y1="70" x2="870" y2="530" gradientUnits="userSpaceOnUse">
      <stop stop-color="#24564A"/>
      <stop offset="1" stop-color="#10251F"/>
    </linearGradient>
  </defs>
</svg>
