<svg width="960" height="600" viewBox="0 0 960 600" fill="none" xmlns="http://www.w3.org/2000/svg">
  <rect width="960" height="600" rx="36" fill="#17322C"/>
  <rect x="28" y="28" width="904" height="544" rx="28" fill="url(#bg)"/>
  <rect x="104" y="88" width="752" height="424" rx="34" fill="#FFF9F1" fill-opacity="0.1" stroke="#FFF9F1" stroke-opacity="0.16"/>
  <rect x="176" y="134" width="608" height="332" rx="30" fill="#FFF9F1"/>
  <rect x="218" y="184" width="196" height="24" rx="12" fill="#17322C"/>
  <rect x="218" y="230" width="524" height="62" rx="18" fill="#F2ECDF"/>
  <circle cx="248" cy="261" r="12" fill="#B6542F"/>
  <rect x="218" y="312" width="524" height="62" rx="18" fill="#F2ECDF"/>
  <circle cx="248" cy="343" r="12" fill="#2F6B5A"/>
  <rect x="218" y="398" width="210" height="46" rx="23" fill="#17322C"/>
  <circle cx="690" cy="212" r="38" fill="#F2ECDF"/>
  <path d="M690 178C674 178 662 191 662 206C662 221 674 234 690 234C706 234 718 221 718 206C718 191 706 178 690 178Z" fill="#B6542F"/>
  <path d="M644 278C644 251 665 230 692 230H688C715 230 736 251 736 278V292H644V278Z" fill="#17322C"/>
  <text x="218" y="490" fill="#FFF9F1" font-family="Arial, sans-serif" font-size="52" font-weight="700">Minimal Login</text>
  <defs>
    <linearGradient id="bg" x1="82" y1="72" x2="884" y2="532" gradientUnits="userSpaceOnUse">
      <stop stop-color="#21473F"/>
      <stop offset="1" stop-color="#112723"/>
    </linearGradient>
  </defs>
</svg>
