<svg width="960" height="600" viewBox="0 0 960 600" fill="none" xmlns="http://www.w3.org/2000/svg">
  <rect width="960" height="600" rx="36" fill="#1A111A"/>
  <rect x="30" y="30" width="900" height="540" rx="28" fill="url(#bg)"/>
  <circle cx="230" cy="210" r="118" fill="#D63347"/>
  <circle cx="482" cy="248" r="118" fill="#2547D0"/>
  <circle cx="734" cy="210" r="118" fill="#F4F0E8" fill-opacity="0.14"/>
  <path d="M170 198C188 160 212 140 230 140C248 140 272 160 290 198C266 184 248 178 230 178C212 178 194 184 170 198Z" fill="#0E0E11"/>
  <path d="M422 238C440 200 464 180 482 180C500 180 524 200 542 238C518 224 500 218 482 218C464 218 446 224 422 238Z" fill="#0E0E11"/>
  <path d="M674 198C692 160 716 140 734 140C752 140 776 160 794 198C770 184 752 178 734 178C716 178 698 184 674 198Z" fill="#0E0E11"/>
  <path d="M112 378H848" stroke="#F4F0E8" stroke-opacity="0.14" stroke-width="2"/>
  <path d="M178 378L230 322L282 378" stroke="#F4F0E8" stroke-opacity="0.3" stroke-width="10" stroke-linecap="round"/>
  <path d="M430 378L482 304L534 378" stroke="#F4F0E8" stroke-opacity="0.3" stroke-width="10" stroke-linecap="round"/>
  <path d="M682 378L734 322L786 378" stroke="#F4F0E8" stroke-opacity="0.3" stroke-width="10" stroke-linecap="round"/>
  <rect x="116" y="420" width="728" height="78" rx="20" fill="#F4F0E8" fill-opacity="0.08"/>
  <text x="148" y="474" fill="#F4F0E8" font-family="Arial, sans-serif" font-size="52" font-weight="700">Spider Slider</text>
  <defs>
    <linearGradient id="bg" x1="84" y1="76" x2="880" y2="532" gradientUnits="userSpaceOnUse">
      <stop stop-color="#301629"/>
      <stop offset="0.55" stop-color="#141E4C"/>
      <stop offset="1" stop-color="#110E16"/>
    </linearGradient>
  </defs>
</svg>
