<svg width="960" height="600" viewBox="0 0 960 600" fill="none" xmlns="http://www.w3.org/2000/svg">
  <rect width="960" height="600" rx="36" fill="#102B2A"/>
  <rect x="28" y="28" width="904" height="544" rx="28" fill="url(#bg)"/>
  <rect x="78" y="78" width="804" height="444" rx="30" fill="#F5F0E9" fill-opacity="0.08" stroke="#F5F0E9" stroke-opacity="0.12"/>
  <rect x="118" y="118" width="724" height="72" rx="20" fill="#F5F0E9" fill-opacity="0.08"/>
  <circle cx="160" cy="154" r="12" fill="#E6673B"/>
  <circle cx="196" cy="154" r="12" fill="#E4A83D"/>
  <circle cx="232" cy="154" r="12" fill="#3DB78A"/>
  <rect x="118" y="220" width="210" height="124" rx="22" fill="#F5F0E9" fill-opacity="0.08"/>
  <rect x="352" y="220" width="222" height="124" rx="22" fill="#F5F0E9" fill-opacity="0.08"/>
  <rect x="598" y="220" width="244" height="124" rx="22" fill="#F5F0E9" fill-opacity="0.08"/>
  <rect x="148" y="248" width="88" height="18" rx="9" fill="#F5F0E9" fill-opacity="0.4"/>
  <rect x="382" y="248" width="88" height="18" rx="9" fill="#F5F0E9" fill-opacity="0.4"/>
  <rect x="628" y="248" width="88" height="18" rx="9" fill="#F5F0E9" fill-opacity="0.4"/>
  <text x="148" y="315" fill="#F5F0E9" font-family="Arial, sans-serif" font-size="44" font-weight="700">$42k</text>
  <text x="382" y="315" fill="#F5F0E9" font-family="Arial, sans-serif" font-size="44" font-weight="700">+18%</text>
  <text x="628" y="315" fill="#F5F0E9" font-family="Arial, sans-serif" font-size="44" font-weight="700">124</text>
  <rect x="118" y="374" width="724" height="110" rx="22" fill="#F5F0E9" fill-opacity="0.08"/>
  <path d="M160 446L266 402L364 430L482 350L596 390L710 324L804 366" stroke="#F29C38" stroke-width="14" stroke-linecap="round" stroke-linejoin="round"/>
  <circle cx="266" cy="402" r="9" fill="#F29C38"/>
  <circle cx="482" cy="350" r="9" fill="#F29C38"/>
  <circle cx="710" cy="324" r="9" fill="#F29C38"/>
  <text x="118" y="535" fill="#F5F0E9" font-family="Arial, sans-serif" font-size="52" font-weight="700">Sales Dashboard</text>
  <defs>
    <linearGradient id="bg" x1="76" y1="70" x2="870" y2="530" gradientUnits="userSpaceOnUse">
      <stop stop-color="#1C4A46"/>
      <stop offset="1" stop-color="#0C1F1F"/>
    </linearGradient>
  </defs>
</svg>
